Color
C

Release Date
June 1, 1979

Genre
Musical  /  Drama  /  Romance

Producer
Yash Chopra

Director
Manmohan Krishna

Star Cast
Farooq Sheikh...... Yusuf Fakir Mohammed
Poonam Dhillon...... Noorie Nabi
Madan Puri...... Lala Karamchand
Iftekhar...... Ghulam Nabi
Bharat Kapoor...... Basheer Khan
Manmohan Krishan...... Saiji
Avtar Gill...... Basheer's friend
Gita Siddharth...... Karamchand's daughter-in-law
Padma Khanna...... Courtesan
Javed Khan...... Faulad Khan
Vikas Anand
Pardesi

Cassettes and CD's on
Saregama-HMV

Singers
Gunjan
Asha Bhosle
Pamela Chopra
Mahendra Kapoor
Lata Mangeshkar
Nitin Mukesh

Lyricist
Jan Nissar Akhtar
Naqsh Lyallpuri

Music Director
Khayyam

Noorie 1979 DvDrip ~ Drama | Romance | Musical ~ [RdY]
Format                           : AVI
Format/Info                      : Audio Video Interleave
File size                        : 1.45 GiB
Duration                         : 1h 55mn
Overall bit rate                 : 1 803 Kbps

Video
ID                               : 0
Format                           : MPEG-4 Visual
Format profile                   : Advanced Simple@L5
Format settings, BVOP            : 2
Format settings, QPel            : Yes
Format settings, GMC             : No warppoints
Format settings, Matrix          : Default (H.263)
Codec ID                         : XVID
Codec ID/Hint                    : XviD
Duration                         : 1h 55mn
Bit rate                         : 1 346 Kbps
Width                            : 656 pixels
Height                           : 480 pixels
Display aspect ratio             : 4:3
Frame rate                       : 29.970 fps
Color space                      : YUV
Chroma subsampling               : 4.2.0
Bit depth                        : 8 bits
Scan type                        : Progressive
Compression mode                 : Lossy
Bits/(Pixel*Frame)               : 0.143
Stream size                      : 1.08 GiB (75%)
Writing library                  : XviD 1.2.1 (UTC 2008-12-04)

Audio
ID                               : 1
Format                           : AC-3
Format/Info                      : Audio Coding 3
Mode extension                   : CM (complete main)
Codec ID                         : 2000
Duration                         : 1h 55mn
Bit rate mode                    : Constant
Bit rate                         : 448 Kbps
Channel(s)                       : 6 channels
Channel positions                : Front: L C R, Side: L R, LFE
Sampling rate                    : 48.0 KHz
Bit depth                        : 16 bits
Compression mode                 : Lossy
Stream size                      : 370 MiB (25%)
Alignment                        : Aligned on interleaves
Interleave, duration             : 64 ms (1.92 video frames)
